<svg xmlns="http://www.w3.org/2000/svg" width="77" height="77" viewBox="0 0 77 77">
  <g id="Gmail_colored" data-name="Gmail colored" transform="translate(-370 -669)">
    <g id="Ellipse_21" data-name="Ellipse 21" transform="translate(370 669)" fill="#252f40" stroke="#6b6b6b" stroke-width="2">
      <circle cx="38.5" cy="38.5" r="38.5" stroke="none"/>
      <circle cx="38.5" cy="38.5" r="37.5" fill="none"/>
    </g>
    <g id="Gmail" transform="translate(486 661.573)">
      <path id="Path_249" data-name="Path 249" d="M2.216.355H39.771C40.875.355,43,.9,43,2V30a2,2,0,0,1-2,2l-12.891.67H4.832C3.727,32.67,0,31.1,0,30V2Z" transform="translate(-99 29.556)" fill="#f1efef"/>
      <path id="Icon_simple-gmail" data-name="Icon simple-gmail" d="M43.313,7.207v27.07a2.659,2.659,0,0,1-2.707,2.707H37.9V12.417L21.656,24.081,5.414,12.417V36.985H2.707A2.658,2.658,0,0,1,0,34.277V7.207A2.66,2.66,0,0,1,2.707,4.5h.9L21.656,17.584,39.7,4.5h.9a2.66,2.66,0,0,1,2.707,2.707Z" transform="translate(-99.156 25.26)" fill="#ff4848"/>
      <path id="Path_32" data-name="Path 32" d="M16.9-9.383V15.195H6.909L-2.909,4.673Z" transform="translate(-78.091 47.104)" fill="#aeaeae"/>
      <path id="Path_33" data-name="Path 33" d="M12.783,0l-.051,24.514L0,10.366Z" transform="translate(-80.978 62.214) rotate(180)" fill="#cdcbcb"/>
      <path id="Path_34" data-name="Path 34" d="M-6.5-6.416,9.722,5.244,6.24,7.735Z" transform="translate(-87.241 44.097)" fill="#7e7e7e"/>
    </g>
  </g>
</svg>
