<svg xmlns="http://www.w3.org/2000/svg" width="65.558" height="71.54" viewBox="0 0 65.558 71.54">
  <g id="Group_53" data-name="Group 53" transform="translate(0 -1.313)">
    <g id="Group_49" data-name="Group 49" transform="translate(1.097 4.474) rotate(-4)">
      <g id="Group_48" data-name="Group 48" transform="translate(49.634 46.707) rotate(-160)">
        <path id="Path_237" data-name="Path 237" d="M.705,36S-2.781,24.507,5.749,10.884a25.121,25.121,0,0,1,7.355-8C15.966.643,18.586.561,19.452,0l.58,1.973a7.076,7.076,0,0,0-.84,3.048C19.448,6.2,16.567,22.9,12.2,27.8c-6.5,6.99-9.1,9.055-8.912,13.46S.705,36,.705,36Z" transform="translate(0 0)" fill="#1b5c42"/>
      </g>
      <path id="Path_241" data-name="Path 241" d="M3.714,35.143c-.4,5.582,6.349-10.792,6.9-19.088S9.407-.116,6.307,0,.393,8.123.022,17.879,4.116,29.561,3.714,35.143Z" transform="translate(34.132 28.896) rotate(132)" fill="#1b5c42"/>
      <path id="Path_244" data-name="Path 244" d="M1.739,11.285c1-.017,1.852-2.558,1.9-5.674S2.9-.017,1.9,0,.045,2.558,0,5.674.736,11.3,1.739,11.285Z" transform="translate(29.431 40.607) rotate(-149)" fill="#28835f"/>
      <path id="Path_240" data-name="Path 240" d="M1.567.8s-.459,2.544-.39,11.979.467,7.338.4,7.666-1.574,0-1.574,0S.633,9.583.426,3.292s.638-1.633.638-1.633Z" transform="matrix(0.998, 0.07, -0.07, 0.998, 28.61, 32.737)" fill="#28835f"/>
      <path id="Path_242" data-name="Path 242" d="M12.48,11.054S5.551,4.865,2.338,2.1c-3.44-3.3-2.952-2.506.6,1,1.576,1.556,4.506,4.361,8.136,7.956,11.562,11.454,9.282,9.429,9.282,9.429Z" transform="translate(6.728 11.162)" fill="#919191"/>
      <path id="Path_243" data-name="Path 243" d="M10.263,9.232S39.057,35.485,14.6,12.569C1.026-.149-1.913-1.342,1.051.927c1.9,2.308,8.436,8.666,8.436,8.666L22.343,19.716" transform="matrix(-0.105, 0.995, -0.995, -0.105, 58.724, 14.74)" fill="#919191"/>
    </g>
    <g id="Group_50" data-name="Group 50" transform="translate(0 26.018)">
      <g id="Ellipse_20" data-name="Ellipse 20" transform="translate(26.554) rotate(45)" fill="#3b2818" stroke="#422a15" stroke-width="1">
        <ellipse cx="13.561" cy="18.777" rx="13.561" ry="18.777" stroke="none"/>
        <ellipse cx="13.561" cy="18.777" rx="13.061" ry="18.277" fill="none"/>
      </g>
      <path id="Path_245" data-name="Path 245" d="M2436.729-3460.626a38.3,38.3,0,0,0,4.821-4.355c.933-1.322,1.263-4,2.663-5.481s10.809-7.776,10.576-9.254-.324-.74-.324-.74-11.748,6.913-12.914,8.857a32.888,32.888,0,0,0-2.255,5.218l-6.765,5.754s-.7,2.411,1.01,1.555S2436.729-3460.626,2436.729-3460.626Z" transform="translate(-2421.422 3491.934)" fill="#593d21"/>
    </g>
    <g id="Group_51" data-name="Group 51" transform="matrix(-0.438, -0.899, 0.899, -0.438, 42.105, 71.75)">
      <g id="Ellipse_20-2" data-name="Ellipse 20" transform="translate(10.958 0) rotate(45)" fill="#3b2818" stroke="#422a15" stroke-width="1">
        <ellipse cx="5.596" cy="7.749" rx="5.596" ry="7.749" stroke="none"/>
        <ellipse cx="5.596" cy="7.749" rx="5.096" ry="7.249" fill="none"/>
      </g>
      <path id="Path_245-2" data-name="Path 245" d="M1.791,8.259a15.794,15.794,0,0,0,1.989-1.8C4.166,5.916,4.3,4.81,4.88,4.2S9.341.991,9.244.381s-.134-.3-.134-.3S4.262,2.929,3.781,3.731a13.568,13.568,0,0,0-.93,2.154L.058,8.259s-.289.995.417.642S1.791,8.259,1.791,8.259Z" transform="translate(4.525 4.661)" fill="#593d21"/>
    </g>
    <g id="Group_52" data-name="Group 52" transform="translate(24.379 63.827) rotate(-24)">
      <g id="Ellipse_20-3" data-name="Ellipse 20" transform="translate(7.054 0) rotate(45)" fill="#3b2818" stroke="#422a15" stroke-width="1">
        <ellipse cx="3.602" cy="4.988" rx="3.602" ry="4.988" stroke="none"/>
        <ellipse cx="3.602" cy="4.988" rx="3.102" ry="4.488" fill="none"/>
      </g>
      <path id="Path_245-3" data-name="Path 245" d="M1.153,5.317A10.166,10.166,0,0,0,2.434,4.16c.248-.351.336-1.064.708-1.456S6.013.638,5.951.246s-.086-.2-.086-.2A22.842,22.842,0,0,0,2.434,2.4a8.735,8.735,0,0,0-.6,1.386L.038,5.317s-.186.64.269.413S1.153,5.317,1.153,5.317Z" transform="translate(2.913 3.001)" fill="#593d21"/>
    </g>
  </g>
</svg>
