<svg xmlns="http://www.w3.org/2000/svg" width="77" height="77" viewBox="0 0 77 77">
  <g id="Instagram" transform="translate(-280 -669)">
    <g id="Group_57" data-name="Group 57" transform="translate(95 -92)">
      <g id="Ellipse_21" data-name="Ellipse 21" transform="translate(185 761)" fill="none" stroke="#fff" stroke-width="2">
        <circle cx="38.5" cy="38.5" r="38.5" stroke="none"/>
        <circle cx="38.5" cy="38.5" r="37.5" fill="none"/>
      </g>
    </g>
    <path id="Icon_awesome-instagram" data-name="Icon awesome-instagram" d="M20.358,12.155A10.437,10.437,0,1,0,30.795,22.592,10.42,10.42,0,0,0,20.358,12.155Zm0,17.222a6.785,6.785,0,1,1,6.785-6.785A6.8,6.8,0,0,1,20.358,29.377Zm13.3-17.649a2.434,2.434,0,1,1-2.434-2.434A2.429,2.429,0,0,1,33.656,11.728ZM40.569,14.2c-.154-3.261-.9-6.15-3.288-8.529s-5.268-3.125-8.529-3.288c-3.361-.191-13.435-.191-16.8,0-3.252.154-6.14.9-8.529,3.279S.3,10.928.138,14.189c-.191,3.361-.191,13.435,0,16.8.154,3.261.9,6.15,3.288,8.529s5.268,3.125,8.529,3.288c3.361.191,13.435.191,16.8,0,3.261-.154,6.15-.9,8.529-3.288s3.125-5.268,3.288-8.529c.191-3.361.191-13.425,0-16.786ZM36.227,34.591a6.87,6.87,0,0,1-3.87,3.87c-2.68,1.063-9.038.818-12,.818s-9.329.236-12-.818a6.87,6.87,0,0,1-3.87-3.87c-1.063-2.68-.818-9.038-.818-12s-.236-9.329.818-12a6.87,6.87,0,0,1,3.87-3.87c2.68-1.063,9.038-.818,12-.818s9.329-.236,12,.818a6.87,6.87,0,0,1,3.87,3.87c1.063,2.68.818,9.038.818,12S37.289,31.92,36.227,34.591Z" transform="translate(298.523 684.908)" fill="#fff"/>
  </g>
</svg>
