<svg xmlns="http://www.w3.org/2000/svg" width="77" height="77" viewBox="0 0 77 77">
  <g id="Messenger" transform="translate(-370 -669)">
    <g id="Group_58" data-name="Group 58" transform="translate(185 -92)">
      <g id="Ellipse_21" data-name="Ellipse 21" transform="translate(185 761)" fill="none" stroke="#fff" stroke-width="2">
        <circle cx="38.5" cy="38.5" r="38.5" stroke="none"/>
        <circle cx="38.5" cy="38.5" r="37.5" fill="none"/>
      </g>
    </g>
    <path id="Icon_simple-messenger" data-name="Icon simple-messenger" d="M0,17.46C0,7.425,7.86,0,18,0S36,7.425,36,17.46,28.14,34.92,18,34.92a19.645,19.645,0,0,1-5.2-.69,1.44,1.44,0,0,0-.96.075L8.25,35.88A1.44,1.44,0,0,1,6.225,34.6L6.12,31.4a1.455,1.455,0,0,0-.48-1.02A17.085,17.085,0,0,1,0,17.46Zm12.48-3.285-5.28,8.4A.845.845,0,0,0,8.43,23.7l5.685-4.305a1.059,1.059,0,0,1,1.305,0l4.2,3.15a2.708,2.708,0,0,0,3.9-.72l5.28-8.4A.846.846,0,0,0,27.57,12.3L21.885,16.6a1.037,1.037,0,0,1-1.29,0l-4.2-3.15a2.7,2.7,0,0,0-3.915.72Z" transform="translate(390.5 689.498)" fill="#fff"/>
  </g>
</svg>
