<svg xmlns="http://www.w3.org/2000/svg" width="306.94" height="102.018" viewBox="0 0 306.94 102.018">
  <g id="swirl" transform="translate(-0.785 424.996)">
    <path id="Path_247" data-name="Path 247" d="M77-424.541a27.088,27.088,0,0,1,6,3.026c5.572,3.7,8.31,7.805,10.663,16.091.408,1.465.913,3.05,1.1,3.554a8.213,8.213,0,0,1,.36,2.426c0,3.026-2.137,5.812-5.932,7.757a14.451,14.451,0,0,1-7.061,1.753c-2.666,0-3.987-.456-5.211-1.777a4.237,4.237,0,0,1-1.249-2.714,5.2,5.2,0,0,1,.024-2.69c.648-2.209,2.089-2.426,6.749-1.033,4.179,1.273,5.452,1.441,6.652.913,1.2-.552,1.705-1.489,1.873-3.458.264-3.218-.913-7.757-3-11.576a25.148,25.148,0,0,0-7.061-7.421c-4.179-2.45-8.6-3.17-13.977-2.306-11.456,1.849-21.326,11.071-24.689,23.056a29.751,29.751,0,0,0-1.417,7.2,29.437,29.437,0,0,0,2.618,16.091c1.153,2.33,2.642,4.491,7.061,10.3,9.63,12.584,14.482,17.676,23.056,24.112,6.989,5.236,11.768,7.733,14.842,7.733,2.714,0,5.764-.817,17.58-4.707,14.554-4.779,24.088-8.334,37.177-13.857,7.037-2.954,13.137-5.86,25.937-12.32,5.74-2.906,12.488-6.172,15.01-7.277,14.025-6.2,26.034-9.318,39.819-10.375a192.1,192.1,0,0,1,22.743.384c4.131.384,5.091.576,11.408,2.017,6.268,1.417,11.6,1.873,13.089,1.1.865-.432.937-1.009.168-1.321-12.368-5.067-15.827-6.268-22.6-7.829a146.459,146.459,0,0,0-32.974-4.107c-18.949-.312-34.607,1.921-55.309,7.9-8.069,2.33-14.722,4.947-27.787,10.951-5.644,2.594-17.508,7.517-24.761,10.279a117.6,117.6,0,0,1-12.176,3.578,36.988,36.988,0,0,1-10.207.6c-1.513-.144-4.227-.36-6-.48-5.38-.408-8.622-1.465-11.84-3.915-2.714-2.065-4.347-4.587-4.2-6.484.192-2.666,3.578-1.729,8.838,2.426a23.258,23.258,0,0,0,8.286,4.443l3.122,1.009,4.8-.024c4.347,0,5.067-.072,7.565-.648,6.628-1.561,13.185-3.915,25.721-9.246,4.011-1.729,9.246-3.939,11.624-4.923,2.378-1.009,5.5-2.378,6.941-3.05a137.729,137.729,0,0,1,28.6-9.967,163.275,163.275,0,0,1,16.859-3.242,145.126,145.126,0,0,1,23.392-1.849c18.3-.288,29.4,1.081,46.687,5.692,7.421,1.993,7.949,2.185,15.25,5.644,6.628,3.146,7.733,3.482,12.056,3.7,3.266.168,3.626.24,5.043.937,2.738,1.345,3.987,2.906,6.052,7.541a7.731,7.731,0,0,0,4.131,4.371c1.249.408,3.29,2.017,6.628,5.115,3,2.786,2.93,2.666,2.282,3.939-.72,1.369-1.513,1.513-2.906.5-2.954-2.113-9.8-5.812-10.759-5.812a1.947,1.947,0,0,0-1.777,1.321c-.36.865-1.825,2.017-3.53,2.762-1.729.769-5.115,1.249-8.694,1.3-3.146.024-3.434-.024-4.539-.576a3.36,3.36,0,0,1-2.21-2.906c-.12-.961-.072-1.2.36-1.633.672-.672,1.1-.576,4.731.841,4.8,1.9,6.725,2.113,8.19.985a13.5,13.5,0,0,1,2.017-1.153c3.41-1.609,2.5-3.722-2.185-5.043a60.643,60.643,0,0,1-6.22-2.618c-8.574-4.035-11.576-5.043-13.641-4.539-2.69.648-6.484,2.786-12.08,6.821-1.129.817-3.458,2.282-5.163,3.29-5.74,3.314-24.376,12.584-34.463,17.124-5.476,2.474-11.552,5.236-13.473,6.148-6.725,3.17-17.124,6.773-31.077,10.759-18.637,5.308-32.086,7.277-46.952,6.893a131.368,131.368,0,0,1-16.667-1.489,48.846,48.846,0,0,1-11.071-3.17c-6.1-2.378-6.725-2.546-9.486-2.378a45.717,45.717,0,0,0-5.524.865,54.86,54.86,0,0,1-10.3,1.465,176.376,176.376,0,0,1-18.516.024c-11.576-1.081-22.551-4.131-30.116-8.358-5.86-3.266-9.414-6.1-16.715-13.281-2.546-2.5-3.939-6.58-3.795-11,.048-2.185.168-2.762.672-3.747a3.858,3.858,0,0,1,3.867-2.185c3.146,0,3.674,1.345,2.474,6.436-.865,3.65-.937,6.821-.144,8.286.745,1.417,4.971,5.6,7.733,7.637a97.635,97.635,0,0,0,13.089,7.805,50.651,50.651,0,0,0,16.091,4.827c3.314.5,4.395.552,13.089.528a137.19,137.19,0,0,0,15.13-.528c7.781-.745,10.039-1.033,9.606-1.3-12.825-7.493-18.949-12.056-25.241-18.709a93.326,93.326,0,0,1-12.7-16.091c-4.971-8-6.965-14.722-6.652-22.431.48-11.72,6.052-22.263,15.779-29.876a29.663,29.663,0,0,1,7.565-3.747C66.263-424.9,74.38-425.478,77-424.541Zm146.5,45.367c-7.685.48-15.466,2.21-27.619,6.1-8.982,2.882-14.41,5.332-26.418,11.96-10.4,5.74-41.164,19.333-46.543,20.534-.961.216-4.971,1.489-8.934,2.81-7.181,2.4-12.608,4.083-17.964,5.524a13.055,13.055,0,0,0-2.81.937c0,.12.408.264.889.336.5.1,2.45.624,4.323,1.2,8.382,2.594,15.442,3.506,27.234,3.482a141.484,141.484,0,0,0,18.468-.985,81.4,81.4,0,0,0,14.17-2.378c19.213-5.187,27.859-7.877,32.662-10.159a42.77,42.77,0,0,1,4.923-1.969c5.932-1.8,22.671-9.775,44.67-21.23,5.86-3.074,8.382-4.515,9.655-5.572A10.126,10.126,0,0,1,252.268-370c.6,0,9.775-5.211,9.775-5.548A4.625,4.625,0,0,0,260.41-376c-.889-.144-3.458-.745-5.692-1.321a58.238,58.238,0,0,0-13.089-2.041C237.114-379.583,228.732-379.511,223.5-379.174Zm49.882,2.858c-.841.216-1.417.456-1.321.552a28.006,28.006,0,0,0,2.954,1.081,37.2,37.2,0,0,1,4.371,1.705c.889.456,2.4,1.129,3.362,1.513s3.266,1.417,5.115,2.281c4.8,2.258,5.236,2.137,1.393-.384-2.666-1.753-3.554-2.282-7.757-4.755-1.657-.985-3.338-1.969-3.723-2.21C276.957-377.013,275.948-376.965,273.378-376.316Zm11.36.072a4.959,4.959,0,0,0,1.273.817,6.836,6.836,0,0,1,1.609,1.1c.576.624,1.729,1.273,2.089,1.153.288-.1-2.378-2.185-3.7-2.906C285.146-376.533,284.5-376.629,284.738-376.244Z" transform="translate(0)" fill="#554313"/>
  </g>
</svg>
